<svg xmlns="http://www.w3.org/2000/svg" viewBox="0 0 512 512"><defs><linearGradient id="g" x1=".2" y1="0" x2=".8" y2="1"><stop stop-color="#d9ef3b"/><stop offset="1" stop-color="#22b75c"/></linearGradient></defs><rect width="512" height="512" rx="110" fill="#fff"/><path d="M256 58c112 0 202 86 202 192 0 87-60 161-144 185v61l-74-55C139 433 58 351 58 250 58 144 147 58 256 58z" fill="url(#g)"/><path d="M260 126c-54 38-96 93-96 151 0 63 47 112 108 112 62 0 110-50 110-113 0-54-37-108-88-150 9 31 4 61-15 86-12 16-19 34-19 54 0 27 21 48 47 48 28 0 49-22 49-51 0-33-20-66-48-96-5-6-10-11-15-17-14-14-25-24-33-24z" fill="#fff" opacity=".88"/></svg>