<svg xmlns="http://www.w3.org/2000/svg" viewBox="0 0 512 512"><rect width="512" height="512" rx="110" fill="#fff"/><g transform="translate(48 48)"><polygon points="208,0 312,60 260,150 156,90" fill="#8bc500"/><polygon points="312,60 416,120 364,210 260,150" fill="#3ec9c1"/><polygon points="416,120 416,240 312,240 364,210" fill="#7d3b8f"/><polygon points="416,240 312,300 260,210 312,240" fill="#f05a49"/><polygon points="312,300 208,360 156,270 260,210" fill="#f5a623"/><polygon points="208,360 104,300 156,210 260,210" fill="#75bb2b"/><polygon points="104,300 0,240 52,150 156,210" fill="#1daac0"/><polygon points="0,240 0,120 104,120 52,150" fill="#624b96"/><polygon points="0,120 104,60 156,150 104,120" fill="#ee6f43"/><polygon points="104,60 208,0 260,90 156,150" fill="#b5d500"/><polygon points="156,150 260,90 312,180 208,240 104,180" fill="#ececec"/></g></svg>