<svg xmlns="http://www.w3.org/2000/svg" viewBox="0 0 512 512"><circle cx="256" cy="256" r="236" fill="#25D366"/><path d="M139 404l18-66c-17-29-26-62-26-96 0-96 79-175 176-175s175 79 175 175-79 175-175 175c-33 0-65-9-93-25z" fill="#fff"/><path d="M307 100c-79 0-143 64-143 142 0 31 10 60 29 84l-11 39 41-11c23 17 51 26 84 26 79 0 143-64 143-142S386 100 307 100zm82 201c-4 12-25 23-35 24-9 1-20 2-33-2-8-3-18-6-31-12-55-24-91-81-94-85-3-4-22-29-22-55s14-39 19-45c5-6 11-8 15-8h11c4 0 8 0 12 9 5 12 17 42 18 45 2 3 3 7 1 11-2 4-3 7-7 11-3 4-7 9-10 12-3 4-7 8-3 15 4 7 18 29 39 47 27 24 49 31 56 35 7 4 11 3 15-2 4-5 17-20 21-27 4-7 9-6 15-4 6 2 38 18 44 21 7 3 11 5 12 8 2 3 2 17-2 29z" fill="#25D366"/></svg>